<?xml version="1.0" standalone="no"?>
<!DOCTYPE svg PUBLIC "-//W3C//DTD SVG 20010904//EN"
 "http://www.w3.org/TR/2001/REC-SVG-20010904/DTD/svg10.dtd">
<svg version="1.0" xmlns="http://www.w3.org/2000/svg"
 width="700.000000pt" height="700.000000pt" viewBox="0 0 700.000000 700.000000"
 preserveAspectRatio="xMidYMid meet">
<metadata>
Created by potrace 1.14, written by Peter Selinger 2001-2017
</metadata>
<g transform="translate(0.000000,700.000000) scale(0.100000,-0.100000)"
fill="#000000" stroke="none">
<path d="M3392 4299 c-17 -6 -18 -59 -19 -803 l-1 -797 101 3 101 3 1 720 0
720 111 2 110 3 -1 -308 c-1 -169 0 -311 2 -317 2 -6 107 -10 291 -9 l287 0 3
317 2 318 112 -3 112 -3 0 -722 0 -723 713 0 713 0 0 175 0 175 185 0 185 0 0
194 0 193 -162 1 c-90 0 -173 0 -186 1 -23 1 -23 2 -21 139 l1 139 356 1 c197
0 362 1 368 1 9 1 12 81 13 291 l0 290 -27 1 c-159 4 -3338 2 -3350 -2z"/>
<path d="M241 4156 c-5 -6 -8 -335 -8 -736 l0 -725 106 1 106 0 5 522 5 523
63 -103 c34 -57 95 -156 135 -220 39 -65 152 -247 249 -405 98 -159 182 -294
187 -302 7 -10 35 -14 110 -15 l101 -1 0 736 0 735 -107 0 -108 -1 0 -517 c0
-285 -2 -518 -5 -518 -3 0 -35 49 -71 108 -172 280 -400 650 -475 771 -46 73
-85 139 -87 145 -5 14 -194 17 -206 2z"/>
<path d="M2455 4135 c-14 -33 -188 -418 -228 -505 -14 -30 -71 -156 -127 -280
l-103 -225 -2 -102 c-1 -68 2 -103 9 -104 6 -1 139 -2 296 -3 l285 -1 1 -102
c0 -57 3 -105 5 -108 5 -4 103 -8 167 -6 l32 1 0 109 0 108 50 -1 c28 -1 53 0
58 3 4 3 7 48 8 99 0 103 6 96 -83 94 l-33 -2 0 214 0 214 -100 -1 -100 0 -1
-31 c0 -17 -1 -112 -2 -211 l-2 -180 -183 -1 c-211 -1 -196 -17 -127 129 23
51 100 218 170 372 175 384 183 402 216 472 16 34 29 66 29 71 0 5 -50 8 -111
8 l-110 0 -14 -31z"/>
<path d="M3797 3312 c-2 -6 -1 -569 2 -599 1 -9 75 -12 291 -12 l290 0 0 308
0 309 -290 0 c-159 0 -291 -3 -293 -6z"/>
</g>
</svg>
