<?xml version="1.0" encoding="utf-8"?>
<!-- Generator: Adobe Illustrator 25.4.1, SVG Export Plug-In . SVG Version: 6.00 Build 0)  -->
<svg version="1.1" id="レイヤー_1" xmlns="http://www.w3.org/2000/svg" xmlns:xlink="http://www.w3.org/1999/xlink" x="0px"
	 y="0px" viewBox="0 0 327.7 39.4" style="enable-background:new 0 0 327.7 39.4;" xml:space="preserve">
<style type="text/css">
	.st0{fill:#14141A;}
</style>
<g transform="translate(-304.843 -249.7)">
	<g transform="translate(304.843 252.577)">
		<path class="st0" d="M0,0h4.9l15.7,25.4h0.1V0H26v35.8h-5L5.3,10.3H5.2v25.4H0L0,0z"/>
	</g>
	<g transform="translate(363.194 252.283)">
		<path class="st0" d="M0,18.2c-0.1-2.8,0-5.6,0.4-8.4c0.2-1.2,0.6-2.4,1.2-3.4c1-1.8,2.3-3.3,4-4.4c2-1.4,4.4-2.1,6.8-2
			c4.5-0.1,8.7,2.4,10.8,6.4c0.6,1,1.1,2.2,1.2,3.4c0.3,2.8,0.4,5.6,0.3,8.3c0.1,2.8,0,5.5-0.3,8.3c-0.1,1.2-0.6,2.4-1.2,3.5
			c-0.9,1.8-2.3,3.3-3.9,4.4c-2,1.4-4.4,2.1-6.9,2.1c-4.5,0-8.7-2.5-10.9-6.4c-0.3-0.5-0.5-1.1-0.7-1.5c-0.2-0.6-0.4-1.3-0.5-1.9
			C0.1,23.7-0.1,21,0,18.2z M5.2,18.2c-0.1,2.4,0.1,4.8,0.4,7.2c0.2,1.1,0.6,2.2,1.4,3c0.6,0.8,1.3,1.4,2.2,1.8
			c1,0.6,2.1,0.8,3.2,0.8c1.1,0,2.3-0.3,3.3-0.8c0.8-0.4,1.6-1,2.1-1.8c0.7-0.9,1.2-1.9,1.4-3c0.3-2.4,0.4-4.8,0.4-7.2
			c0.1-2.4-0.1-4.8-0.4-7.2c-0.5-2-1.7-3.8-3.5-4.8c-1-0.5-2.1-0.8-3.3-0.8c-1.1,0-2.2,0.3-3.2,0.8C8.3,6.6,7.6,7.2,7,8
			c-0.7,0.8-1.2,1.9-1.4,3C5.3,13.4,5.2,15.8,5.2,18.2z"/>
	</g>
	<g transform="translate(415.652 252.577)">
		<path class="st0" d="M9.5,4.8H0V0h24.3v4.8h-9.5v31H9.5L9.5,4.8z"/>
	</g>
	<g transform="translate(466.474 252.577)">
		<path class="st0" d="M0,25.7L11.6,0h5.5L5.4,25.7h9.1V15.3h5v10.3h2.8v4.8h-2.8v5.3h-5v-5.3H0L0,25.7z"/>
	</g>
	<rect x="527.9" y="273.9" class="st0" width="14.3" height="15.1"/>
	<path class="st0" d="M632.6,264.1v-14.4H517.5v11.7h0v27.6h4.9v-35.5h5.5V269h14.3v-15.5h5.5v35.5h66.8v-8.5h9V271h-9v-6.9
		L632.6,264.1z"/>
</g>
</svg>
