<?xml version="1.0" encoding="utf-8"?>
<!-- Generator: Adobe Illustrator 25.4.1, SVG Export Plug-In . SVG Version: 6.00 Build 0)  -->
<svg version="1.1" id="レイヤー_1" xmlns="http://www.w3.org/2000/svg" xmlns:xlink="http://www.w3.org/1999/xlink" x="0px"
	 y="0px" viewBox="0 0 244.4 109.7" style="enable-background:new 0 0 244.4 109.7;" xml:space="preserve">
<style type="text/css">
	.st0{fill:#727272;}
	.st1{fill:#DADBDB;}
</style>
<g>
	<path class="st0" d="M5,96.6v7.6H2.5v-20h6.4c4.6,0,7.3,2.3,7.3,6.2c0,3.9-2.6,6.2-7.3,6.2H5z M8.9,94.3c3.4,0,4.8-1.5,4.8-3.9
		c0-2.5-1.4-3.9-4.8-3.9H5v7.9H8.9z"/>
	<path class="st0" d="M28,92.8c-0.6-0.8-1.4-1.2-2.4-1.2c-1.8,0-3.1,1.3-3.1,3.5v9.1h-2.3V89.7h2.3v1.4c0.6-1,1.6-1.7,3.4-1.7
		c2,0,3.2,0.7,4.1,2L28,92.8z"/>
	<path class="st0" d="M44.5,97.9c0,3.8-1.9,6.6-6,6.6c-3.9,0-6-2.6-6-6.6V96c0-4.1,2.2-6.5,6-6.5c3.8,0,6,2.3,6,6.5V97.9z
		 M42.1,97.9V96c0-2.8-1.3-4.4-3.7-4.4c-2.4,0-3.7,1.7-3.7,4.4v1.9c0,2.5,1,4.5,3.7,4.5C40.9,102.4,42.1,100.4,42.1,97.9z"/>
	<path class="st0" d="M57.8,84.2h2.3v20h-2.3v-1.3c-0.8,1-2,1.5-3.9,1.5c-3.9,0-5.8-2.8-5.8-6.6V96c0-4.1,2.2-6.5,5.8-6.5
		c1.9,0,3.2,0.6,3.9,1.7V84.2z M57.8,98.1V96c0-2.7-1.3-4.4-3.7-4.4c-2.4,0-3.7,1.7-3.7,4.4v1.9c0,2.5,1.2,4.5,3.7,4.5
		C56.7,102.4,57.8,100.5,57.8,98.1z"/>
	<path class="st0" d="M76.3,104.2H74v-1.4c-0.7,1.1-1.7,1.7-3.9,1.7c-3.1,0-5.3-1.6-5.3-5.7v-9h2.3v9c0,2.9,1.6,3.6,3.3,3.6
		c2.2,0,3.5-1.5,3.5-3.5v-9h2.3V104.2z"/>
	<path class="st0" d="M91.8,102c-0.9,1.7-2.7,2.4-5,2.4c-4,0-6.3-2.6-6.3-6.6V96c0-4.1,2.3-6.5,6.3-6.5c2.2,0,4,0.8,5,2.3L90,93
		c-0.6-0.9-1.9-1.5-3.2-1.5c-2.5,0-3.9,1.7-3.9,4.4v1.9c0,2.5,1.2,4.5,3.9,4.5c1.4,0,2.6-0.5,3.2-1.6L91.8,102z"/>
	<path class="st0" d="M105.9,102c-1,1.8-2.6,2.4-5.1,2.4c-3.9,0-6.2-2.5-6.2-6.6V96c0-4.1,1.9-6.5,5.7-6.5c3.8,0,5.7,2.3,5.7,6.5
		v1.5H97v0.4c0,2.5,1.2,4.5,3.7,4.5c1.9,0,2.8-0.6,3.5-1.6L105.9,102z M97,95.5h6.8c-0.1-2.4-1.2-3.9-3.4-3.9
		C98.2,91.6,97.1,93.1,97,95.5z"/>
	<path class="st0" d="M122,91.2c0.8-1.1,2-1.7,3.9-1.7c3.6,0,5.8,2.3,5.8,6.5v1.9c0,3.8-1.9,6.6-5.8,6.6c-1.9,0-3.2-0.5-3.9-1.5v1.3
		h-2.3v-20h2.3V91.2z M129.4,97.9V96c0-2.8-1.3-4.4-3.7-4.4c-2.3,0-3.7,1.6-3.7,4.2v2.1c0,2.5,1,4.5,3.7,4.5
		C128.2,102.4,129.4,100.4,129.4,97.9z"/>
	<path class="st0" d="M139.8,104.4l-5.7-14.6h2.5l4.3,11.3l3.8-11.3h2.5l-5.1,15c-1.2,3.5-2,5-6,5v-2.3c1.9,0,2.8-0.3,3.7-2.9
		L139.8,104.4z"/>
	<path class="st0" d="M173.7,84.2v20h-2.4l-8.6-15.1v15.1h-2.5v-20h2.4l8.7,15.3V84.2H173.7z"/>
	<path class="st0" d="M185.9,104.5c-4.4,0-7.3-2.7-7.3-9.1v-2.2c0-6.5,2.8-9.1,7.3-9.1s7.3,2.7,7.3,9.1v2.2
		C193.1,101.8,190.3,104.5,185.9,104.5z M181.1,95.3c0,5,1.7,6.9,4.8,6.9c3.1,0,4.8-1.9,4.8-6.9v-2.2c0-5-1.7-6.9-4.8-6.9
		c-3.1,0-4.8,1.9-4.8,6.9V95.3z"/>
	<path class="st0" d="M210.6,84.2v2.3h-6.1v17.8H202V86.5H196v-2.3H210.6z"/>
	<path class="st0" d="M220.3,84.2l-6.6,14.5h5.8v-5.9h2.5v5.9h1.8v2.3h-1.8v3.2h-2.5V101h-8.7v-1.8l7-14.9H220.3z"/>
	<path class="st0" d="M230.7,92.7h8.6v-8.5h2.5v20h-2.5V95h-8.6v9.2h-2.5v-20h2.5V92.7z"/>
</g>
<g>
	<g transform="translate(304.843 252.577)">
		<path class="st1" d="M-304.7-248h7.8l25.1,40.5h0.1V-248h8.4v57h-8l-25.1-40.6h-0.1v40.5h-8.3V-248H-304.7z"/>
	</g>
	<g transform="translate(466.474 252.577)">
		<path class="st1" d="M-401.6-207l18.6-41h8.8l-18.7,41h14.5v-16.5h8v16.4h4.5v7.6h-4.5v8.4h-8v-8.4h-23.1v-7.5H-401.6z"/>
	</g>
	<g>
		<rect x="132.5" y="38.6" class="st1" width="22.8" height="24.1"/>
		<path class="st1" d="M244.4,22.9V0H115.8v18.7l0,0v44h7.8V6h8.8v24.7h22.8V6h8.8v56.7h51.5V49.1h14.4V34h-14.4v-11H244.4z"/>
	</g>
</g>
</svg>
