<?xml version="1.0" encoding="utf-8"?>
<!-- Generator: Adobe Illustrator 25.4.1, SVG Export Plug-In . SVG Version: 6.00 Build 0)  -->
<svg version="1.1" xmlns="http://www.w3.org/2000/svg" xmlns:xlink="http://www.w3.org/1999/xlink" x="0px" y="0px" viewBox="0 0 2098.1 666.5" style="enable-background:new 0 0 2098.1 666.5;" xml:space="preserve">
<style type="text/css">
	.st0{fill:#081A30;}
	.st1{fill:#091A30;}
	.st2{fill:#091B31;}
	.st3{fill:#4E5A6B;}
	.st4{fill:#3C4B5C;}
</style>
<g>
	<path class="st0" d="M727.4,360.2c2.2-5.2,4.4-10.3,6.4-15.5c34.4-89.6,68.7-179.1,103-268.7c4.6-12.1,8.8-24.4,13.5-36.5c2.3-5.8,5.2-11.5,8.5-16.9c10.4-17.1,26.1-23.3,45.6-21c13,1.5,25.3,5.6,37.7,9.5c20.4,6.5,40.8,13.1,61.1,20c10.6,3.6,20.6,8.5,29.5,15.5c9.7,7.7,14.7,17.6,13.9,30c-0.4,6.4-1.3,12.9-2.9,19.2c-5,19.9-13.3,38.7-21.7,57.3C962.5,285,902.8,416.8,843.1,548.6c-4.7,10.4-10.5,20.1-18.2,28.5c-5.2,5.8-11.4,10-18.7,13c-51.8,20.9-104.6,39.3-157.2,58c-9.9,3.5-19.7,7.1-29.6,10.6c-1.5,0.5-3.1,1-5,1.6c-2-7-3.9-13.6-5.8-20.3c-30.2-108.3-60.5-216.5-90.6-324.8c-16.9-60.9-33.7-121.8-50.6-182.7c-4.3-15.5-9.1-31-13.4-46.5c-2.1-7.6-2.7-15.5-1.2-23.3c1.6-8.7,6.9-15,14.4-19.4c6.7-3.9,14-6.2,21.5-7.8c39.9-8.6,79-19.9,117.9-31.9c7.2-2.2,14.5-3.9,22.1-3.6c9,0.3,16,4.2,20.7,11.8c4.4,7.1,6.4,15,7.9,23c8.8,47.9,17.2,96,26.4,143.9c8.8,46.1,18.2,92,27.4,138.1c0.6,2.8,1,5.6,1.5,8.3c-0.6,1.3-1.5,2.5-1.9,3.9c-2,6.7-3.7,13.4-5.7,20c-8.6,29.9-17.2,59.7-25.9,89.6c-9.3,32.1-18.7,64.1-28.1,96.2c-9.7,33.2-19.4,66.3-29.1,99.5c-1,3.3-1.7,6.6-2.6,10c1.3-0.6,1.7-1.5,2.1-2.4c3.9-10.4,7.8-20.8,11.8-31.1c7.9-20.8,15.7-41.5,23.6-62.3c7.1-18.9,14.3-37.8,21.4-56.7c7.8-20.6,15.6-41.2,23.4-61.8c6.4-16.9,12.9-33.7,19.2-50.6C723.1,373,725.2,366.6,727.4,360.2z M619.3,646.9c-0.1-0.1-0.2-0.3-0.3-0.4c-0.1,0.3-0.3,0.5-0.4,0.8c0,0.1,0.2,0.2,0.3,0.4C619,647.4,619.2,647.1,619.3,646.9z M618.3,649.9c-0.1-0.1-0.2-0.2-0.3-0.4c-0.1,0.3-0.3,0.5-0.4,0.8c0,0.1,0.2,0.2,0.3,0.4C618,650.4,618.2,650.1,618.3,649.9z"/>
	<path class="st1" d="M465.2,433.8c-0.3,131.4-107.2,233-233.1,232.7C107.3,666.3,0.1,565.6,0,433.9C-0.1,304.6,104.5,201,233,201.1C361.2,201.3,465.2,305.6,465.2,433.8z M322.3,435.3c-0.3-16.7-2.2-33.2-6.9-49.3c-6.3-21.1-16.1-40.1-32.1-55.5c-28.9-27.9-68.5-28.8-98.6-2.3c-10.5,9.3-18.8,20.3-24.8,32.9c-19.2,40.1-21.5,81.6-9.5,124c5.8,20.4,15.9,38.4,31.6,52.9c29.4,27.3,70.5,27.7,100.4,1c8-7.2,14.7-15.5,20.1-24.7C316.6,489.9,321.8,463.2,322.3,435.3z"/>
	<path class="st1" d="M1909.4,657.6c-69.4-0.7-124.9-28.9-167.6-83.1c-20.6-26.2-35.1-55.2-41.8-88c-4.7-23.4-5.2-47-1.8-70.6c6.5-44.7,22.5-85.8,47.9-123.1c32.2-47.3,76.9-76,132.7-87.8c22.3-4.7,44.8-6.9,67.5-5.8c70.2,3.3,129.2,50.2,146.5,113.2c9.2,33.6,6.9,66-11.3,96.3c-12.3,20.5-29.8,35.7-50.2,47.6c-23.3,13.5-48.4,22.3-74.8,26.6c-21.7,3.5-43.6,5.6-65.4,8.3c-2.8,0.3-5.6,0.6-8.4,0.9c-12.7,1.7-19.2,16.2-11.5,26.5c13.3,17.7,31,27.9,53.3,29.5c19.9,1.5,39.2-2,58.3-6.6c22.2-5.4,43.8-12.4,65.3-20c4.4-1.5,8.7-2.3,13.2-0.9c5.2,1.7,9.3,5.1,10.7,10.3c4.8,18,9.5,36.1,8.6,55c-0.7,13.5-6.4,24.2-17.4,32.2c-10.2,7.4-21.9,12-33.7,15.8c-26.2,8.4-52.6,15.8-79.8,19.7C1936.3,655.6,1922.8,656.3,1909.4,657.6z M1867.4,391.4c4.9-0.9,10.8-1.4,16.3-3c12.7-3.7,25.4-7.8,38-12c10.5-3.6,21.1-7.1,31.2-11.6c5-2.2,9.5-6.1,13.5-10c5.1-5,6.4-11.6,4.2-18.5c-4.3-13.5-13.2-22.7-27.1-26c-19.3-4.7-37.1-0.4-52.7,11.5c-8,6.1-15.4,13.2-22.5,20.4c-4.5,4.6-8.2,10-11.9,15.4c-3.7,5.4-5.7,11.6-6.7,18.1c-1.2,7.9,2.3,13,9.9,14.8C1861.8,390.8,1864.2,391,1867.4,391.4z"/>
	<path class="st1" d="M1530.2,657.2c-33.4-0.5-66.1-4.4-97.8-15.2c-34.8-11.8-64.9-30.6-88.6-59c-20.8-25-33.8-53.7-40.1-85.4c-10.8-54.6-6.2-108,17.9-158.5c34.1-71.6,90.8-115.8,167.8-134c20.8-4.9,42.1-6.7,63.5-5.9c10.1,0.4,20.2,1.7,30.3,3c15.2,2,30.3,4.1,45.4,7c7.6,1.4,15.1,4.1,22.2,7.2c16.7,7.2,24.7,20.5,25.5,38.4c0.7,15.3-2.2,30.2-5.4,45c-1.2,5.7-2.6,11.3-4.1,17c-3.2,12.1-11.8,17.4-24.1,15c-10.6-2.1-21.2-4.3-31.8-6.3c-18.2-3.3-36.3-7.1-54.9-6.8c-23.3,0.4-44.7,6.3-63.2,21c-9,7.1-16.4,15.6-22.5,25.3c-10.9,17.3-19.3,35.8-22.5,56.1c-6,38.4,6.1,70.6,34.5,96.7c11.7,10.8,26.3,16.1,42,18.3c15.6,2.2,31.2,1.1,46.8-0.6c16.5-1.8,32.4-5.4,48.1-10.6c11.7-3.9,23.4,4.5,24.1,16.7c1,17,1.7,34-0.1,50.9c-0.8,7.7-2.1,15.5-4.2,23c-4.3,15.5-14.4,25.9-29.5,31.6c-10.1,3.7-20.5,5.8-31.1,6.7C1562.5,655.3,1546.4,656.1,1530.2,657.2z"/>
	<path class="st1" d="M1063.3,631.2c1.7-21,3.3-41.1,4.9-61.2c1.4-18.4,2.8-36.9,4.3-55.3c1.9-24.2,3.8-48.5,5.7-72.7c1-13.1,1.9-26.3,3.2-39.3c1.2-11.2,3-22.4,4.4-33.6c2-16.2,3.7-32.4,5.8-48.6c2.3-17.7,5-35.2,10.8-52.2c6.9-20.4,20.3-34.3,40.3-42.2c15.5-6.2,31.8-9.8,48.1-12.8c12.6-2.4,25.2-4.4,37.9-6.5c12.4-2.1,22.7,7.1,21.7,19.6c-2,23.9-4.3,47.8-6.4,71.6c-1.5,16.6-2.9,33.2-4.3,49.8c-1.8,20.7-3.7,41.5-5.6,62.2c-1.5,16.3-2.9,32.5-4.4,48.8c-1.8,19.7-3.7,39.5-5.6,59.2c-1.5,15.4-2.9,30.8-4.4,46.2c-0.7,7.1-1.2,14.3-2.2,21.4c-0.4,3.1-1.6,6.2-3.1,8.9c-5,8.8-11.8,15.6-21.6,19.1c-34.9,12.5-69.8,24.9-104.6,37.6C1075.7,655.3,1061,646.3,1063.3,631.2z"/>
	<path class="st2" d="M1264.5,60c0,10.7,0.2,21.3-0.1,32c-0.2,5.6-0.9,11.3-2,16.8c-2.2,11.3-8.8,19.5-19.3,24.5c-9.6,4.5-19.7,7-30.1,8.7c-24.5,3.9-49,7.5-73.5,11.2c-3.1,0.5-6.3,1-9.4,1.2c-9.5,0.5-17-4.9-18.8-14.3c-3.9-20.7-6.4-41.4-3-62.5c3.6-22.2,15.3-38.6,35-49.4c14.2-7.7,29.5-12.4,45.3-14.9c17.9-2.9,35.9-5,53.9-6.9c12.2-1.3,20.5,6.6,20.9,18.7c0.2,5.8,0.3,11.7,0.4,17.5c0.1,5.8,0,11.6,0,17.5C1264,60,1264.2,60,1264.5,60z"/>
	<path class="st3" d="M727.4,360.2c-2.2,6.4-4.3,12.8-6.7,19.1c-6.3,16.9-12.8,33.8-19.2,50.6c-7.8,20.6-15.6,41.2-23.4,61.8c-7.1,18.9-14.3,37.8-21.4,56.7c-7.9,20.8-15.7,41.5-23.6,62.3c-3.9,10.4-7.8,20.8-11.8,31.1c-0.3,0.9-0.8,1.8-2.1,2.4c0.9-3.3,1.6-6.7,2.6-10c9.7-33.2,19.4-66.3,29.1-99.5c9.4-32.1,18.7-64.1,28.1-96.2c8.7-29.9,17.3-59.7,25.9-89.6c1.9-6.7,3.7-13.4,5.7-20c0.4-1.4,1.2-2.6,1.9-3.9c3.3,7.7,6.6,15.5,9.9,23.2C724,352.3,725.7,356.2,727.4,360.2z"/>
	<path class="st3" d="M619.3,646.9c-0.1,0.3-0.3,0.6-0.4,0.8c-0.1-0.1-0.3-0.3-0.3-0.4c0.1-0.3,0.2-0.6,0.4-0.8C619.1,646.6,619.2,646.7,619.3,646.9z"/>
	<path class="st4" d="M618.3,649.9c-0.1,0.3-0.3,0.5-0.4,0.8c-0.1-0.1-0.3-0.3-0.3-0.4c0.1-0.3,0.2-0.5,0.4-0.8C618.1,649.6,618.2,649.8,618.3,649.9z"/>
</g>
</svg>
