<?xml version="1.0" encoding="utf-8"?>
<!-- Generator: Adobe Illustrator 25.4.1, SVG Export Plug-In . SVG Version: 6.00 Build 0)  -->
<svg version="1.1" id="レイヤー_1" xmlns="http://www.w3.org/2000/svg" xmlns:xlink="http://www.w3.org/1999/xlink" x="0px"
	 y="0px" viewBox="0 0 151 33.8" style="enable-background:new 0 0 151 33.8;" xml:space="preserve">
<style type="text/css">
	.st0{fill:#E70000;}
	.st1{fill:#FEFEFE;}
	.st2{fill:#2D2A26;}
</style>
<g>
	<g>
		<path class="st0" d="M47.2,5.3C46.6,3.2,45,1.6,42.9,1c-3.8-1-18.8-1-18.8-1S9,0,5.3,1C3.2,1.6,1.6,3.2,1,5.3C0,9,0,16.9,0,16.9
			s0,7.8,1,11.6c0.6,2.1,2.2,3.7,4.3,4.3c3.8,1,18.8,1,18.8,1s15.1,0,18.8-1c2.1-0.6,3.7-2.2,4.3-4.3c1-3.8,1-11.6,1-11.6
			S48.2,9,47.2,5.3z"/>
		<polygon class="st1" points="19.3,24.1 31.8,16.9 19.3,9.6 		"/>
	</g>
	<g>
		<g>
			<path class="st2" d="M69.9,30.7c-1-0.6-1.6-1.6-2-3c-0.4-1.4-0.6-3.2-0.6-5.4v-3.1c0-2.3,0.2-4.1,0.7-5.5s1.2-2.4,2.2-3
				s2.3-0.9,3.8-0.9c1.6,0,2.8,0.3,3.8,1c0.9,0.6,1.6,1.6,2.1,3c0.4,1.4,0.7,3.2,0.7,5.5v3.1c0,2.3-0.2,4.1-0.6,5.4
				c-0.4,1.4-1.1,2.4-2.1,3s-2.2,0.9-3.9,0.9C72.2,31.6,70.9,31.3,69.9,30.7z M75.2,27.4c0.3-0.7,0.4-1.8,0.4-3.4v-6.6
				c0-1.5-0.1-2.6-0.4-3.3C75,13.4,74.5,13,73.8,13c-0.6,0-1.1,0.4-1.4,1.1S72,15.9,72,17.4V24c0,1.6,0.1,2.7,0.4,3.4s0.7,1,1.4,1
				C74.5,28.4,75,28,75.2,27.4z"/>
			<path class="st2" d="M143,22.3v1.1c0,1.4,0,2.4,0.1,3c0.1,0.7,0.2,1.2,0.5,1.5s0.6,0.5,1.2,0.5c0.7,0,1.2-0.3,1.5-0.8
				c0.3-0.6,0.4-1.5,0.4-2.8l4.1,0.2c0,0.2,0,0.4,0,0.8c0,2-0.5,3.4-1.6,4.4s-2.6,1.4-4.5,1.4c-2.3,0-4-0.7-4.9-2.2
				s-1.4-3.7-1.4-6.8v-3.7c0-3.2,0.5-5.5,1.5-6.9c1-1.5,2.6-2.2,5-2.2c1.6,0,2.9,0.3,3.8,0.9c0.9,0.6,1.5,1.5,1.8,2.8
				c0.4,1.3,0.5,3,0.5,5.2v3.6C151,22.3,143,22.3,143,22.3z M143.6,13.4c-0.2,0.3-0.4,0.8-0.5,1.5S143,16.6,143,18v1.5h3.5V18
				c0-1.4,0-2.4-0.1-3.1s-0.3-1.2-0.5-1.5s-0.6-0.4-1.1-0.4C144.3,13,143.9,13.1,143.6,13.4z"/>
			<path class="st2" d="M58.3,21.9L52.9,2.4h4.7l1.9,8.9c0.5,2.2,0.8,4,1.1,5.6h0.1c0.2-1.1,0.5-2.9,1.1-5.5l2-8.9h4.7L63,21.9v9.4
				h-4.7V21.9z"/>
			<path class="st2" d="M95.8,10.2v21.1H92l-0.4-2.6h-0.1c-1,2-2.5,2.9-4.5,2.9c-1.4,0-2.4-0.5-3.1-1.4s-1-2.4-1-4.3V10.2h4.8v15.5
				c0,0.9,0.1,1.6,0.3,2c0.2,0.4,0.6,0.6,1,0.6c0.4,0,0.8-0.1,1.2-0.4c0.4-0.3,0.7-0.6,0.8-1V10.2H95.8z"/>
			<path class="st2" d="M120.1,10.2v21.1h-3.7l-0.4-2.6h-0.1c-1,2-2.5,2.9-4.5,2.9c-1.4,0-2.4-0.5-3.1-1.4c-0.7-0.9-1-2.4-1-4.3
				V10.2h4.8v15.5c0,0.9,0.1,1.6,0.3,2s0.6,0.6,1,0.6s0.8-0.1,1.2-0.4s0.7-0.6,0.8-1V10.2H120.1z"/>
			<path class="st2" d="M108.7,6.2H104v25.1h-4.6V6.2h-4.7V2.4h14.1v3.8H108.7z"/>
			<path class="st2" d="M135.9,13.6c-0.3-1.3-0.8-2.3-1.4-2.9c-0.6-0.6-1.5-0.9-2.7-0.9c-0.9,0-1.7,0.2-2.4,0.7
				c-0.8,0.5-1.3,1.1-1.8,1.9l0,0V1.3H123v30h3.9l0.5-2h0.1c0.4,0.7,0.9,1.3,1.7,1.7c0.7,0.4,1.5,0.6,2.4,0.6c1.6,0,2.8-0.7,3.5-2.2
				c0.8-1.5,1.1-3.8,1.1-6.9v-3.3C136.3,16.7,136.2,14.9,135.9,13.6z M131.5,22.2c0,1.5-0.1,2.7-0.2,3.6c-0.1,0.9-0.3,1.5-0.6,1.9
				s-0.7,0.6-1.2,0.6c-0.4,0-0.8-0.1-1.1-0.3s-0.6-0.5-0.8-0.8v-12c0.2-0.6,0.4-1,0.8-1.4c0.4-0.4,0.8-0.6,1.3-0.6s0.9,0.2,1.1,0.6
				c0.3,0.4,0.4,1,0.6,1.9c0.1,0.9,0.2,2.2,0.2,3.8v2.7H131.5z"/>
		</g>
	</g>
</g>
</svg>
