<?xml version="1.0" encoding="utf-8"?>
<!-- Generator: Adobe Illustrator 25.4.1, SVG Export Plug-In . SVG Version: 6.00 Build 0)  -->
<svg version="1.1" id="レイヤー_1" xmlns="http://www.w3.org/2000/svg" xmlns:xlink="http://www.w3.org/1999/xlink" x="0px"
	 y="0px" viewBox="0 0 294.8 49" style="enable-background:new 0 0 294.8 49;" xml:space="preserve">
<style type="text/css">
	.st0{fill:#E70000;}
	.st1{fill:#FEFEFE;}
	.st2{fill:#2D2A26;}
</style>
<g>
	<g>
		<path class="st0" d="M79.2,11.8c-0.6-2.1-2.2-3.7-4.3-4.3c-3.8-1-18.8-1-18.8-1s-15.1,0-18.8,1c-2.1,0.6-3.7,2.2-4.3,4.3
			c-1,3.7-1,11.6-1,11.6s0,7.8,1,11.6c0.6,2.1,2.2,3.7,4.3,4.3c3.8,1,18.8,1,18.8,1s15.1,0,18.8-1c2.1-0.6,3.7-2.2,4.3-4.3
			c1-3.8,1-11.6,1-11.6S80.2,15.5,79.2,11.8z"/>
		<polygon class="st1" points="51.3,30.6 63.8,23.4 51.3,16.1 		"/>
	</g>
	<g>
		<g>
			<path class="st2" d="M101.9,37.2c-1-0.6-1.6-1.6-2-3s-0.6-3.2-0.6-5.4v-3.1c0-2.3,0.2-4.1,0.7-5.5s1.2-2.4,2.2-3s2.3-0.9,3.8-0.9
				c1.6,0,2.8,0.3,3.8,1c0.9,0.6,1.6,1.6,2.1,3c0.4,1.4,0.7,3.2,0.7,5.5v3.1c0,2.3-0.2,4.1-0.6,5.4c-0.4,1.4-1.1,2.4-2.1,3
				c-1,0.6-2.2,0.9-3.9,0.9C104.2,38.1,102.9,37.8,101.9,37.2z M107.2,33.9c0.3-0.7,0.4-1.8,0.4-3.4v-6.6c0-1.5-0.1-2.6-0.4-3.3
				c-0.2-0.7-0.7-1.1-1.4-1.1c-0.6,0-1.1,0.4-1.4,1.1c-0.3,0.7-0.4,1.8-0.4,3.3v6.6c0,1.6,0.1,2.7,0.4,3.4c0.3,0.7,0.7,1,1.4,1
				C106.5,34.9,107,34.5,107.2,33.9z"/>
			<path class="st2" d="M175,28.8v1.1c0,1.4,0,2.4,0.1,3c0.1,0.7,0.2,1.2,0.5,1.5c0.3,0.3,0.6,0.5,1.2,0.5c0.7,0,1.2-0.3,1.5-0.8
				c0.3-0.6,0.4-1.5,0.4-2.8l4.1,0.2c0,0.2,0,0.4,0,0.8c0,2-0.5,3.4-1.6,4.4s-2.6,1.4-4.5,1.4c-2.3,0-4-0.7-4.9-2.2
				s-1.4-3.7-1.4-6.8v-3.7c0-3.2,0.5-5.5,1.5-6.9c1-1.5,2.6-2.2,5-2.2c1.6,0,2.9,0.3,3.8,0.9c0.9,0.6,1.5,1.5,1.8,2.8
				c0.4,1.3,0.5,3,0.5,5.2v3.6C183,28.8,175,28.8,175,28.8z M175.6,19.9c-0.2,0.3-0.4,0.8-0.5,1.5s-0.1,1.7-0.1,3.1V26h3.5v-1.5
				c0-1.4,0-2.4-0.1-3.1c-0.1-0.7-0.3-1.2-0.5-1.5s-0.6-0.4-1.1-0.4C176.3,19.5,175.9,19.6,175.6,19.9z"/>
			<path class="st2" d="M90.3,28.4L84.9,8.9h4.7l1.9,8.9c0.5,2.2,0.8,4,1.1,5.6h0.1c0.2-1.1,0.5-2.9,1.1-5.5l2-8.9h4.7L95,28.4v9.4
				h-4.7V28.4z"/>
			<path class="st2" d="M127.8,16.7v21.1H124l-0.4-2.6h-0.1c-1,2-2.5,2.9-4.5,2.9c-1.4,0-2.4-0.5-3.1-1.4c-0.7-0.9-1-2.4-1-4.3V16.7
				h4.8v15.5c0,0.9,0.1,1.6,0.3,2c0.2,0.4,0.6,0.6,1,0.6s0.8-0.1,1.2-0.4c0.4-0.3,0.7-0.6,0.8-1V16.7H127.8z"/>
			<path class="st2" d="M152.1,16.7v21.1h-3.7l-0.4-2.6h-0.1c-1,2-2.5,2.9-4.5,2.9c-1.4,0-2.4-0.5-3.1-1.4c-0.7-0.9-1-2.4-1-4.3
				V16.7h4.8v15.5c0,0.9,0.1,1.6,0.3,2c0.2,0.4,0.6,0.6,1,0.6c0.4,0,0.8-0.1,1.2-0.4s0.7-0.6,0.8-1V16.7H152.1z"/>
			<path class="st2" d="M140.7,12.7H136v25.1h-4.6V12.7h-4.7V8.9h14.1v3.8H140.7z"/>
			<path class="st2" d="M167.9,20.1c-0.3-1.3-0.8-2.3-1.4-2.9c-0.6-0.6-1.5-0.9-2.7-0.9c-0.9,0-1.7,0.2-2.4,0.7
				c-0.8,0.5-1.3,1.1-1.8,1.9l0,0V7.8H155v30h3.9l0.5-2h0.1c0.4,0.7,0.9,1.3,1.7,1.7c0.7,0.4,1.5,0.6,2.4,0.6c1.6,0,2.8-0.7,3.5-2.2
				c0.8-1.5,1.1-3.8,1.1-6.9v-3.3C168.3,23.2,168.2,21.4,167.9,20.1z M163.5,28.7c0,1.5-0.1,2.7-0.2,3.6c-0.1,0.9-0.3,1.5-0.6,1.9
				s-0.7,0.6-1.2,0.6c-0.4,0-0.8-0.1-1.1-0.3c-0.3-0.2-0.6-0.5-0.8-0.8v-12c0.2-0.6,0.4-1,0.8-1.4c0.4-0.4,0.8-0.6,1.3-0.6
				s0.9,0.2,1.1,0.6c0.3,0.4,0.4,1,0.6,1.9c0.1,0.9,0.2,2.2,0.2,3.8v2.7H163.5z"/>
		</g>
	</g>
</g>
<g>
	<path d="M205.4,28.2c0-5.5,3.8-8.8,7.8-8.8c4.6,0,7,3.4,7,8c0,0.8-0.1,1.6-0.2,2h-10.3c0.4,2.8,2.2,4.2,4.7,4.2
		c1.4,0,2.6-0.4,3.8-1.2l1.5,2.7c-1.6,1.1-3.8,1.9-5.9,1.9C209.1,37,205.4,33.8,205.4,28.2z M216.5,26.5c0-2.3-1-3.7-3.2-3.7
		c-1.8,0-3.3,1.3-3.7,3.7H216.5z"/>
	<path d="M225.7,30.7v-7.4h-2.4V20l2.6-0.2l0.5-4.5h3.7v4.5h4.1v3.5h-4.1v7.4c0,1.9,0.8,2.8,2.3,2.8c0.5,0,1.2-0.2,1.7-0.4l0.7,3.2
		c-0.9,0.3-2.1,0.6-3.5,0.6C227.2,37,225.7,34.5,225.7,30.7z"/>
	<path d="M237.5,28.2c0-5.6,4-8.8,8.6-8.8c2.1,0,3.7,0.8,4.9,1.9l-2.1,2.8c-0.8-0.7-1.6-1.1-2.6-1.1c-2.5,0-4.3,2.1-4.3,5.2
		c0,3.2,1.7,5.2,4.2,5.2c1.2,0,2.3-0.6,3.3-1.4l1.7,2.9c-1.6,1.4-3.6,2-5.5,2C241.1,37,237.5,33.8,237.5,28.2z"/>
	<path d="M255.7,34.2c0-1.6,1.2-2.9,2.7-2.9c1.6,0,2.8,1.3,2.8,2.9S260,37,258.4,37C256.8,37,255.7,35.8,255.7,34.2z"/>
</g>
</svg>
