<?xml version="1.0" encoding="utf-8"?>
<!-- Generator: Adobe Illustrator 25.4.1, SVG Export Plug-In . SVG Version: 6.00 Build 0)  -->
<svg version="1.1" xmlns="http://www.w3.org/2000/svg" xmlns:xlink="http://www.w3.org/1999/xlink" x="0px"  y="0px" viewBox="0 0 258.6 142.5" style="enable-background:new 0 0 258.6 142.5;" xml:space="preserve">
    <path d="M18.1,31c-3.6,0-9.5-0.3-11.9-2.6c-0.7-0.6-1.4-1.5-1.4-3.2c0-3.6,2.2-5.9,4.1-7.8l3.8,3.1c-1,0.9-2.4,2.1-2.4,3.5 c0,0.8,0.3,1.1,0.6,1.3c1.1,1,5.2,1,7,1c7.1,0,9.7-0.5,12.8-1.1l0.2,5.1C27.3,30.5,22.8,31,18.1,31z M19.1,13.2l-3-3.2l4.2-3.5 c-6.8,0-9.6,0-12-0.2L7.2,1.5c3.6,0.6,7.3,0.9,11.1,0.9c3,0,6-0.1,9-0.5l1.9,3.4C25.6,7.9,21.4,11.4,19.1,13.2z"/>
    <path d="M66.9,31c-3.6,0-9.5-0.3-11.9-2.6c-0.7-0.6-1.4-1.5-1.4-3.2c0-3.6,2.2-5.9,4.1-7.8l3.8,3.1c-1,0.9-2.4,2.1-2.4,3.5 c0,0.8,0.3,1.1,0.6,1.3c1.1,1,5.2,1,7,1c7.1,0,9.7-0.5,12.8-1.1l0.2,5.1C76.1,30.5,71.6,31,66.9,31z M67.9,13.2l-3-3.2l4.2-3.5 c-6.8,0-9.6,0-12-0.2L56,1.5c3.6,0.6,7.3,0.9,11.1,0.9c3,0,6-0.1,9-0.5L78,5.4C74.4,7.9,70.2,11.4,67.9,13.2z"/>
    <path d="M106.4,31.4l-3.8,0.6c-1.2-4.1-1.6-8.4-1.6-12.7c0-6.5,0.9-12.9,2.5-19.2l4,1.6c0.1,0,1,0.4,1,0.8c0,0.1,0,0.2-0.2,0.3 s-0.7,0.3-0.8,0.3c-0.3,0.2-0.8,2.3-0.9,2.8c-0.4,1.8-1.5,9.6-1.5,12.7c0,0.5,0,2.6,0.2,4.3l1.7-2.5l2.6,1.8 C108.7,24.1,106.8,28.1,106.4,31.4z M130.7,29.8c-1.5-1.4-2.6-2.2-4.3-3.2c-0.1,3.2-0.9,5.3-6.5,5.3c-1.2,0-8.1,0-8.1-5.9 c0-3.7,3.2-5.3,7.2-5.3c0.8,0,1.7,0.1,2.5,0.2c-0.3-4.9-0.5-6.6-0.5-9.4c-2.7,0.3-4.9,0.5-7.4,0.3l0-4.2c0.7,0.1,1.8,0.2,3.7,0.2 c1.6,0,2.7-0.1,3.8-0.2c0.1-3.1,0.1-3.5,0.2-7.6l4.6,0.7c0.9,0.1,1,0.3,1,0.6c0,0.2-0.4,0.4-0.8,0.7c-0.2,1-0.4,2.8-0.6,5.1 c1.1-0.2,3.5-0.7,5.1-1.7v4.4c-1.7,0.6-3.8,0.9-5.1,1.1c0,4.4,0.1,6.4,0.6,11c1.6,0.7,3.4,1.4,7.1,3.9L130.7,29.8z M118.9,24.4 c-1.9,0-3.2,0.7-3.2,1.6c0,0.9,1.2,1.8,3.6,1.8c2.7,0,2.6-0.9,2.5-3.1C121.2,24.6,120.1,24.4,118.9,24.4z"/>
    <path d="M22,85l-3-3.8c1.7-0.2,4.6-0.7,7-2.9c1.5-1.4,2.4-3.4,2.4-5.7c0-3.9-3-5.2-4.1-5.7c-2,4.3-3.6,7-6.7,10.3 c0.3,1,0.4,1.1,0.8,2.5l-3.9,2.1c-0.3-0.6-0.3-0.7-0.6-1.5c-1.1,0.7-3.4,2-5.9,2c-2.6,0-4.5-2-4.5-5.3c0-2.8,1.5-8.5,8.9-12.6 c0.1-1.6,0.2-2.6,0.4-4.6c-2.6,0.1-3.6,0.1-5.9,0.1L5.7,56c1.5,0.2,4.8,0.4,7.8,0.3c0.5-2.9,0.9-4.4,1.5-6.9l4.3,1.1 c1,0.3,1,0.5,1,0.6c0,0.4-0.5,0.5-0.9,0.6c-0.5,1-0.8,2.2-1.3,4c5.4-0.9,7.7-1.8,10-2.7v4.4c-3.9,1.1-6.5,1.7-10.8,2.2 c-0.2,1.5-0.3,1.7-0.5,3.4c1.8-0.3,2.7-0.4,4.5-0.3c0.2-0.8,0.3-1.4,0.5-2.1l4.7,1l-0.7,1.9c4.6,1.6,7.4,4.6,7.4,9.4 C33.2,81.8,24.8,84.2,22,85z M12.4,68.9c-3.7,3.1-4.7,5.7-4.7,7.3c0,1.7,0.8,1.9,1.5,1.9c1.6,0,2.9-1.1,3.8-1.8 C12.6,73.5,12.5,71.8,12.4,68.9z M16.4,66.6c-0.1,3.1,0.1,4.6,0.2,5.9c1.6-2.4,2.4-4.1,3.4-6.4C18.6,66.1,17.8,66.2,16.4,66.6z"/>
    <path d="M63.9,59.9c-3.3,9.6-5.5,13.7-7.6,17.6l-4.4-1.9c3.3-5,5.3-10.3,7-14.9c-1.9,0.2-3,0.4-5,0.5l-0.6-4.3c2.7,0,4.4-0.2,7-0.5 c0.7-2.5,1.2-4.3,1.5-6.8l4.5,1c0.2,0,1,0.2,1,0.7c0,0.4-0.7,0.7-0.9,0.9c0,0-0.8,2.7-1,3.2c2.4-0.6,3.6-1,4.7-1.4v4.6 C68.6,59,67.4,59.3,63.9,59.9z M78.4,81.7c-1.4-1.1-2.5-1.8-4.1-2.7c-0.4,3.3-1.6,5-7,5c-2.6,0-5-0.4-6.7-1.9 c-0.7-0.6-1.5-1.8-1.5-3.5c0-2.2,1.6-5.8,7.3-5.8c1.4,0,2.4,0.1,3.2,0.2c-0.1-0.9-0.6-5.1-0.6-6c0-2,0.9-3.2,1.8-4.2l4.3,2.3 c-1.3,1.1-1.6,2.1-1.6,3.3c0,0.9,0.1,2.7,0.5,5.7c2.7,1.1,4.5,2.1,7.1,3.7L78.4,81.7z M66.3,76.5c-2.1,0-3.1,1.1-3.1,2 c0,0.9,1.1,1.8,3.4,1.8c3.3,0,3.3-1.7,3.3-3.2C69.1,77,67.7,76.5,66.3,76.5z M80.2,64.2c-2.7-1.6-4.9-2.7-9-3.7l1.8-3.5 c3,0.5,6.1,1.5,9.1,3.8L80.2,64.2z"/>
    <path d="M113.7,61.5c-2,6.8-4.1,13.4-8.4,21.8l-5-1.5c2.5-4,5.1-8.4,8.3-19.5c-3.3,0.4-4.7,0.5-6.1,0.5l-0.3-4.3 c0.5,0.1,1.3,0.2,3.3,0.2c0.6,0,3.2,0,4.1-0.2c0.6-2.8,1.3-5.9,1.4-8.7l5,1.2c0.1,0,1,0.2,1,0.7c0,0.3-0.1,0.4-0.5,0.6 c-0.5,0.2-0.6,0.3-0.7,0.7c-0.4,1.8-0.7,3.3-1,4.5c2.4-0.5,4.9-1.6,6.5-2.4v4.6C119.9,60,118.2,60.7,113.7,61.5z M124.1,83.6 c-7.4,0-10.5-2.1-10.5-6.2c0-0.2,0-1.5,0.5-3l4.1,0.9c-0.2,0.8-0.2,1.4-0.2,1.5c0,0.5,0.1,0.9,0.5,1.2c1.1,1.1,4.3,1.1,5.2,1.1 c3.8,0,6-0.6,7.2-0.9l0.4,4.8C129.2,83.4,126.9,83.6,124.1,83.6z M125,67.4c-2.6,0-5.2,0.3-6.2,0.5v-4.3c2.1-0.2,4.2-0.3,6.4-0.3 c2.9,0,4.2,0.1,5.4,0.2v4.3C127.5,67.4,125.6,67.4,125,67.4z"/>
    <path d="M178.7,75.8c-3.1,4.6-7.3,6.3-9.6,7.2l-3-4.2c1.8-0.5,4.9-1.4,7.4-4.4c2.5-3,3-6.4,3-8.2c0-2.3-0.7-5-3-7.2 c-2.6-2.5-5.5-2.6-7-2.7c-1.3,9.8-3.7,15.5-5.1,18.2c-1.2,2.5-3.1,6-5.2,6c-1.5,0-8.2-3.7-8.2-11c0-9.1,7.5-17.4,18.1-17.4 c8.5,0,15.3,5.8,15.3,14.9C181.3,70.7,180.2,73.6,178.7,75.8z M156.6,60c-2.9,2.8-4.1,6.6-4.1,9.1c0,3.3,1.9,5,2.6,5 c2.1,0,5.7-10.7,6.5-17.1C160.4,57.5,158.6,58.1,156.6,60z"/>
    <path d="M14,118.1v3.2h6.1v4.4H14c1.7,2.3,4,4.3,5.3,5.3l-2.9,3.4c-1.2-0.8-1.8-1.4-2.3-2.2v8.2h-5v-8.7c-1.3,2.1-3.2,4.6-5,6.3 L0,135.3c3.1-2.6,5.5-5.5,7.3-9.6H1.9v-4.4h7.2v-3.2H1.3v-4.2H6c-0.3-1-0.9-3.4-1.6-5.1H2.2v-4.1h7.2v-4l5.1,0.5c0.7,0,1,0.2,1,0.4 c0,0.2-0.2,0.5-0.4,0.6c-0.1,0.1-0.5,0.4-0.5,0.7v1.8h6v4.1H19c-0.5,1.9-1,3.2-1.8,5.1H21v4.2H14z M9.2,108.8 c0.6,1.5,1.1,3.3,1.6,5.1h1.7c0.4-1.1,1.1-3,1.5-5.1H9.2z M39.4,106.3c-0.4,0-1.5,0.3-2,0.4c-0.2,0-5.3,1.2-10.1,1.6 c0,1.5,0,2.2,0,5.7h12.8v4.9h-4.1v21.3h-4.8v-21.3h-4c-0.5,11.3-1.7,15.7-5.6,21.6l-4.9-1.6c1.5-1.7,2.5-2.9,3.5-5.3 c1.8-4.6,2.3-10,2.3-17.2c0-4.1,0-8.2-0.2-12.3l2.9,0.2c0.5,0,1.2-0.1,1.4-0.1c7.4-1.4,8.2-1.6,10.8-2.6l2.8,3.3 c0.1,0.2,0.5,0.6,0.5,1C40.5,106.3,40.2,106.3,39.4,106.3z"/>
    <path d="M76.4,136.4c-3.9,2.5-7.2,2.9-9.2,2.9c-2.9,0-5.2-1.1-6.7-2.3c-2.2-1.9-2.9-4.2-2.9-15.3c0-2.8,0.4-16.5,0.2-19.6l6.1,0.9 c1.1,0.1,1.5,0.5,1.5,0.7c0,0.4-0.6,0.7-1.3,1.3c-0.4,1.2-1.3,13.3-1.3,18.4c0,2.1,0,6.6,0.9,8.1c0.1,0.1,1.1,1.9,4,1.9 c2.6,0,8.7-1.6,13.2-10.4l4.5,3.7C83.7,129.5,81,133.5,76.4,136.4z"/>
    <path d="M107.7,136c-1.5,0-2.6-0.8-3.4-1.5c-3.2-3.1-4.7-8.5-4.7-17.3c0-5.9,0.6-8.9,1.4-12l5.1,1.4c0.3,0.1,1.1,0.3,1.1,0.9 c0,0.5-0.6,0.7-1.3,1c-0.5,2.5-0.9,5.2-0.9,10.3c0,9,2.2,10.6,3.1,10.6c1.7,0,3.5-4.9,4.4-7.1l3.8,3.4 C113.8,131.1,111.5,136,107.7,136z M131.1,127.8c-1.3-9.6-4.4-15-6.8-18.7l4.7-2.3c2.2,3.1,6.3,8.9,7.5,19.6L131.1,127.8z"/>
    <path d="M152.1,103.5v38.7h-4.7V98.8h16.3v4.7H152.1z"/>
    <path d="M193.8,121.7c-0.2,0.6-0.6,1.2-0.8,1.7h16.7c0,4.7-0.9,11.5-2.5,14c-1.4,2.2-3.6,2.8-7.3,2.9l-1.8-4.5 c-1.3,1.4-2.9,3-5.7,4.8l-3.5-2.3c5-2.9,8.8-7.9,10.5-11h-2.3c-0.6,1.2-2,3.6-4.5,6c-2.2,2.2-4.6,4-7.2,5.7l-3.6-2.5 c6.1-2.8,10-7.8,10.9-9.2h-2.1c-2.3,2.8-4.2,4.4-6.2,5.8l-3.6-2.4c1.3-0.8,2.3-1.5,4-3c-3.1,1.2-8.2,2.9-9.5,3.2 c-1.7,0.4-1.9,0.5-2.2,0.8c-0.5,0.6-0.6,0.7-0.9,0.7c-0.1,0-0.3-0.1-0.3-0.3l-0.8-5.2c1.5-0.3,3.5-0.8,5.1-1.2v-10.7h-4.5v-4.7h4.5 V101l5.3,0.4c0.3,0,0.6,0.2,0.6,0.5s-0.2,0.5-0.5,0.7c-0.2,0.1-0.6,0.4-0.6,0.7v6.8h4.8v4.7h-4.8v9.4c1.6-0.5,3.1-0.9,4.6-1.5v3.8 c1.6-1.7,2.4-3,3.4-4.9h-4.4v-3.7h25.5v3.7H193.8z M188.1,116.2v-14.5h18.7v14.5H188.1z M202.4,105.6h-9.8v1.9h9.8V105.6z  M202.4,110.8h-9.8v2h9.8V110.8z M203.7,127.1c-0.8,1.9-1.9,4.2-5.3,8.1c1.3,0.3,2.3,0.3,2.5,0.3c1.2,0,1.9-0.3,2.4-1.3 c1.1-2.2,1.3-4.6,1.5-7H203.7z"/>
    <path d="M218.2,142.5v-4.7h11.6V99h4.7v43.5H218.2z"/>
    <path d="M258.6,133.7c0,3.9-3.2,7.1-7.1,7.1c-3.9,0-7.1-3.2-7.1-7.1c0-4,3.2-7.1,7.1-7.1C255.4,126.6,258.6,129.7,258.6,133.7z  M246.6,133.7c0,2.7,2.2,4.9,4.9,4.9c2.7,0,4.9-2.2,4.9-4.9c0-2.7-2.2-4.9-4.9-4.9C248.9,128.8,246.6,131,246.6,133.7z"/>
</svg>
