<?xml version="1.0" encoding="utf-8"?>
<!-- Generator: Adobe Illustrator 25.4.1, SVG Export Plug-In . SVG Version: 6.00 Build 0)  -->
<svg version="1.1" id="レイヤー_1" xmlns="http://www.w3.org/2000/svg" xmlns:xlink="http://www.w3.org/1999/xlink" x="0px"
	 y="0px" viewBox="0 0 200.5 101.9" style="enable-background:new 0 0 200.5 101.9;" xml:space="preserve">
<style type="text/css">
	.st0{fill:#CA3F48;}
	.st1{fill:#FFFFFF;}
</style>
<g>
	<path class="st0" d="M30.4,8.3l-7,3.2C22.1,9,20,7.5,16.6,7.5c-5.6,0-8.9,4.9-8.9,11.9c0,6.8,3.3,11.9,8.9,11.9
		c3.4,0,5.4-1.4,7.4-4.8l6.3,3.8c-2.6,5.3-7.1,8.5-13.9,8.5C6.6,38.8,0,31.2,0,19.4C0,7.9,6.9,0,16.7,0C23.8,0,28.1,3.4,30.4,8.3z"
		/>
	<path class="st1" d="M78,19.3c0,12.1-6.8,19.4-16.6,19.4c-9.8,0-16.5-7.2-16.5-19.3S51.6,0,61.5,0C71.2,0,78,7.2,78,19.3z
		 M70.2,19.4c0-7.6-3.7-12-8.9-12s-8.8,4.2-8.8,11.9s3.7,12,8.9,12S70.2,27.1,70.2,19.4z"/>
	<path class="st1" d="M153,38.2h-6.7l-13.8-20.5c-0.9-1.4-2.1-3.3-2.6-4.2c0,1.4,0.1,6.1,0.1,8.2v16.5h-7.4V0.6h7.2l13.3,19.9
		c0.9,1.4,2.1,3.3,2.6,4.2c0-1.4-0.1-6.1-0.1-8.2V0.6h7.4V38.2z"/>
	<path class="st1" d="M30.4,62l-7,3.2c-1.3-2.6-3.5-4.1-6.9-4.1c-5.6,0-8.9,4.9-8.9,11.9C7.7,79.8,11,85,16.6,85
		c3.4,0,5.4-1.4,7.4-4.8l6.3,3.8c-2.6,5.3-7.1,8.5-13.9,8.5C6.6,92.4,0,84.9,0,73.1c0-11.4,6.9-19.4,16.7-19.4
		C23.8,53.7,28.1,57.1,30.4,62z"/>
	<path class="st1" d="M73.9,91.8H47V54.3h26.1v7.4H54.5v6.5h10.8v7.3H54.5v9.1h19.4V91.8z"/>
	<path class="st1" d="M120.7,66.2c0,8.7-5.8,12.3-13.6,12.3h-8.3v13.3h-7.5V54.3h16.4C114.8,54.3,120.7,58.2,120.7,66.2z
		 M112.9,66.3c0-3.3-2.1-4.8-5.5-4.8h-8.6v9.7h8.8C111.1,71.2,112.9,69.6,112.9,66.3z"/>
	<path class="st1" d="M164.6,61.7h-10.8v30.2h-7.5V61.7h-10.8v-7.4h29.1V61.7z"/>
	<path class="st1" d="M200.5,101.9h-26.8v-6.2h26.8V101.9z"/>
</g>
</svg>
