<?xml version="1.0" encoding="utf-8"?>
<!-- Generator: Adobe Illustrator 25.4.1, SVG Export Plug-In . SVG Version: 6.00 Build 0)  -->
<svg version="1.1" id="レイヤー_1" xmlns="http://www.w3.org/2000/svg" xmlns:xlink="http://www.w3.org/1999/xlink" x="0px"
	 y="0px" viewBox="0 0 244.4 62.7" style="enable-background:new 0 0 244.4 62.7;" xml:space="preserve">
<style type="text/css">
	.st0{fill:#141419;}
</style>
<g>
	<g transform="translate(304.843 252.577)">
		<path class="st0" d="M-304.7-248h7.8l25.1,40.5h0.1V-248h8.4v57h-8l-25.1-40.6h-0.1v40.5h-8.3V-248H-304.7z"/>
	</g>
	<g transform="translate(466.474 252.577)">
		<path class="st0" d="M-401.6-207l18.6-41h8.8l-18.7,41h14.5v-16.5h8v16.4h4.5v7.6h-4.5v8.4h-8v-8.4h-23.1L-401.6-207L-401.6-207z"
			/>
	</g>
	<g>
		<rect x="132.5" y="38.6" class="st0" width="22.8" height="24.1"/>
		<path class="st0" d="M244.4,22.9V0H115.8v18.7l0,0v44h7.8V6h8.8v24.7h22.8V6h8.8v56.7h51.5V49.1h14.4V34h-14.4V23h28.9V22.9z"/>
	</g>
</g>
</svg>
