<?xml version="1.0" encoding="utf-8"?>
<!-- Generator: Adobe Illustrator 25.4.1, SVG Export Plug-In . SVG Version: 6.00 Build 0)  -->
<svg version="1.1" id="レイヤー_1" xmlns="http://www.w3.org/2000/svg" xmlns:xlink="http://www.w3.org/1999/xlink" x="0px"
	 y="0px" viewBox="0 0 327.7 59.7" style="enable-background:new 0 0 327.7 59.7;" xml:space="preserve">
<style type="text/css">
	.st0{fill:#14141A;}
</style>
<g transform="translate(-304.843 -249.7)">
	<g transform="translate(304.843 252.577)">
		<path class="st0" d="M0,10.2h4.9l15.7,25.4h0.1V10.2H26V46h-5L5.3,20.5H5.2v25.4H0V10.2z"/>
	</g>
	<g transform="translate(363.194 252.283)">
		<path class="st0" d="M0,28.4c-0.1-2.8,0-5.6,0.4-8.4c0.2-1.2,0.6-2.4,1.2-3.4c1-1.8,2.3-3.3,4-4.4c2-1.4,4.4-2.1,6.8-2
			c4.5-0.1,8.7,2.4,10.8,6.4c0.6,1,1.1,2.2,1.2,3.4c0.3,2.8,0.4,5.6,0.3,8.3c0.1,2.8,0,5.5-0.3,8.3c-0.1,1.2-0.6,2.4-1.2,3.5
			c-0.9,1.8-2.3,3.3-3.9,4.4c-2,1.4-4.4,2.1-6.9,2.1c-4.5,0-8.7-2.5-10.9-6.4c-0.3-0.5-0.5-1.1-0.7-1.5c-0.2-0.6-0.4-1.3-0.5-1.9
			C0.1,33.9-0.1,31.2,0,28.4z M5.2,28.4c-0.1,2.4,0.1,4.8,0.4,7.2c0.2,1.1,0.6,2.2,1.4,3c0.6,0.8,1.3,1.4,2.2,1.8
			c1,0.6,2.1,0.8,3.2,0.8s2.3-0.3,3.3-0.8c0.8-0.4,1.6-1,2.1-1.8c0.7-0.9,1.2-1.9,1.4-3c0.3-2.4,0.4-4.8,0.4-7.2
			c0.1-2.4-0.1-4.8-0.4-7.2c-0.5-2-1.7-3.8-3.5-4.8c-1-0.5-2.1-0.8-3.3-0.8c-1.1,0-2.2,0.3-3.2,0.8c-0.9,0.4-1.6,1-2.2,1.8
			c-0.7,0.8-1.2,1.9-1.4,3C5.3,23.6,5.2,26,5.2,28.4z"/>
	</g>
	<g transform="translate(415.652 252.577)">
		<path class="st0" d="M9.5,15H0v-4.8h24.3V15h-9.5v31H9.5V15z"/>
	</g>
	<g transform="translate(466.474 252.577)">
		<path class="st0" d="M0,35.9l11.6-25.7h5.5L5.4,35.9h9.1V25.5h5v10.3h2.8v4.8h-2.8v5.3h-5v-5.3H0V35.9z"/>
	</g>
	<rect x="527.9" y="284.1" class="st0" width="14.3" height="15.1"/>
	<path class="st0" d="M632.6,274.3v-14.4H517.5v11.7l0,0v27.6h4.9v-35.5h5.5v15.5h14.3v-15.5h5.5v35.5h66.8v-8.5h9v-9.5h-9v-6.9
		H632.6z"/>
</g>
</svg>
